<?xml version="1.0" standalone="yes"?>

<svg version="1.1" viewBox="0.0 0.0 960.0 540.0" fill="none" stroke="none" stroke-linecap="square" stroke-miterlimit="10" xmlns="http://www.w3.org/2000/svg" xmlns:xlink="http://www.w3.org/1999/xlink"><clipPath id="p.0"><path d="m0 0l960.0 0l0 540.0l-960.0 0l0 -540.0z" clip-rule="nonzero"></path></clipPath><g clip-path="url(#p.0)"><path fill="#ffffff" d="m0 0l960.0 0l0 540.0l-960.0 0z" fill-rule="nonzero"></path><path fill="#000000" fill-opacity="0.0" d="m51.95013 270.0l0 0c0 -115.90152 94.24582 -209.85828 210.50394 -209.85828l0 0c55.8291 0 109.37161 22.110008 148.84875 61.466064c39.477142 39.356056 61.65518 92.73434 61.65518 148.39221l0 0c0 115.90152 -94.24582 209.85828 -210.50394 209.85828l0 0c-116.25812 0 -210.50394 -93.95676 -210.50394 -209.85828z" fill-rule="nonzero"></path><path stroke="#595959" stroke-width="1.0" stroke-linejoin="round" stroke-linecap="butt" d="m51.95013 270.0l0 0c0 -115.90152 94.24582 -209.85828 210.50394 -209.85828l0 0c55.8291 0 109.37161 22.110008 148.84875 61.466064c39.477142 39.356056 61.65518 92.73434 61.65518 148.39221l0 0c0 115.90152 -94.24582 209.85828 -210.50394 209.85828l0 0c-116.25812 0 -210.50394 -93.95676 -210.50394 -209.85828z" fill-rule="nonzero"></path><path fill="#000000" fill-opacity="0.0" d="m142.33159 124.887054c6.4969482 -6.0707855 25.850952 4.0045776 43.228348 22.503937l0 0c17.377396 18.49936 26.197739 38.417404 19.70079 44.48819l0 0c-6.4969635 6.0707855 -25.850952 -4.0045776 -43.228348 -22.503937l0 0c-17.37741 -18.49936 -26.197754 -38.417404 -19.70079 -44.48819z" fill-rule="nonzero"></path><path stroke="#bf9000" stroke-width="2.0" stroke-linejoin="round" stroke-linecap="butt" d="m142.33159 124.887054c6.4969482 -6.0707855 25.850952 4.0045776 43.228348 22.503937l0 0c17.377396 18.49936 26.197739 38.417404 19.70079 44.48819l0 0c-6.4969635 6.0707855 -25.850952 -4.0045776 -43.228348 -22.503937l0 0c-17.37741 -18.49936 -26.197754 -38.417404 -19.70079 -44.48819z" fill-rule="nonzero"></path><path fill="#000000" fill-opacity="0.0" d="m136.85335 117.93076l184.31496 196.0" fill-rule="nonzero"></path><path stroke="#bf9000" stroke-width="2.0" stroke-linejoin="round" stroke-linecap="butt" d="m136.85335 117.93076l184.31496 196.0" fill-rule="nonzero"></path><path fill="#000000" fill-opacity="0.0" d="m131.54562 272.89175c-0.00869751 -7.6450195 17.716599 -13.856628 39.59056 -13.874023l0 0c21.873947 -0.01739502 39.613342 6.1660156 39.62204 13.811035l0 0c0.00869751 7.6450195 -17.716599 13.856628 -39.590546 13.874023l0 0c-21.873962 0.01739502 -39.613358 -6.1660156 -39.622055 -13.811035z" fill-rule="nonzero"></path><path stroke="#cc0000" stroke-width="2.0" stroke-linejoin="round" stroke-linecap="butt" d="m131.54562 272.89175c-0.00869751 -7.6450195 17.716599 -13.856628 39.59056 -13.874023l0 0c21.873947 -0.01739502 39.613342 6.1660156 39.62204 13.811035l0 0c0.00869751 7.6450195 -17.716599 13.856628 -39.590546 13.874023l0 0c-21.873962 0.01739502 -39.613358 -6.1660156 -39.622055 -13.811035z" fill-rule="nonzero"></path><path fill="#000000" fill-opacity="0.0" d="m123.938286 272.22446l231.90549 -0.28344727" fill-rule="nonzero"></path><path stroke="#cc0000" stroke-width="2.0" stroke-linejoin="round" stroke-linecap="butt" d="m123.938286 272.22446l231.90549 -0.28344727" fill-rule="nonzero"></path><path fill="#000000" fill-opacity="0.0" d="m165.42664 382.9818c-4.0616913 -5.27063 4.892624 -18.913605 20.0 -30.472443l0 0c15.107376 -11.558838 30.646973 -16.656433 34.708664 -11.385834l0 0c4.061676 5.27063 -4.892624 18.913605 -20.0 30.472443l0 0c-15.107391 11.558838 -30.646988 16.656464 -34.708664 11.385834z" fill-rule="nonzero"></path><path stroke="#6aa84f" stroke-width="2.0" stroke-linejoin="round" stroke-linecap="butt" d="m165.42664 382.9818c-4.0616913 -5.27063 4.892624 -18.913605 20.0 -30.472443l0 0c15.107376 -11.558838 30.646973 -16.656433 34.708664 -11.385834l0 0c4.061676 5.27063 -4.892624 18.913605 -20.0 30.472443l0 0c-15.107391 11.558838 -30.646988 16.656464 -34.708664 11.385834z" fill-rule="nonzero"></path><path fill="#000000" fill-opacity="0.0" d="m159.8229 386.55136l160.15747 -122.61417" fill-rule="nonzero"></path><path stroke="#6aa84f" stroke-width="2.0" stroke-linejoin="round" stroke-linecap="butt" d="m159.8229 386.55136l160.15747 -122.61417" fill-rule="nonzero"></path><path fill="#000000" fill-opacity="0.0" d="m286.91376 152.31471c5.3489075 0.26091003 9.092773 12.82515 8.362213 28.062988l0 0c-0.7305908 15.237839 -5.6589966 27.379028 -11.007874 27.118103l0 0c-5.3489075 -0.26091003 -9.092804 -12.82515 -8.362213 -28.062988l0 0c0.7305908 -15.237839 5.658966 -27.379028 11.007874 -27.118103z" fill-rule="nonzero"></path><path stroke="#1155cc" stroke-width="2.0" stroke-linejoin="round" stroke-linecap="butt" d="m286.91376 152.31471c5.3489075 0.26091003 9.092773 12.82515 8.362213 28.062988l0 0c-0.7305908 15.237839 -5.6589966 27.379028 -11.007874 27.118103l0 0c-5.3489075 -0.26091003 -9.092804 -12.82515 -8.362213 -28.062988l0 0c0.7305908 -15.237839 5.658966 -27.379028 11.007874 -27.118103z" fill-rule="nonzero"></path><path fill="#000000" fill-opacity="0.0" d="m287.6211 147.05284l-7.6850586 161.51183" fill-rule="nonzero"></path><path stroke="#1155cc" stroke-width="2.0" stroke-linejoin="round" stroke-linecap="butt" d="m287.6211 147.05284l-7.6850586 161.51183" fill-rule="nonzero"></path><path fill="#000000" fill-opacity="0.0" d="m175.14075 123.73871l41.889755 0l0 32.15747l-41.889755 0z" fill-rule="nonzero"></path><path fill="#bf9000" d="m187.25012 144.25871l0 -7.578125l-2.828125 0l0 -1.015625l6.8125 0l0 1.015625l-2.84375 0l0 7.578125l-1.140625 0zm8.689453 0l-1.046875 0l0 -6.71875q-0.390625 0.359375 -1.015625 0.734375q-0.609375 0.359375 -1.09375 0.53125l0 -1.015625q0.875 -0.421875 1.53125 -1.0q0.671875 -0.59375 0.953125 -1.15625l0.671875 0l0 8.625z" fill-rule="nonzero"></path><path fill="#000000" fill-opacity="0.0" d="m158.07228 231.77922l41.88977 0l0 32.157486l-41.88977 0z" fill-rule="nonzero"></path><path fill="#cc0000" d="m170.18166 252.29921l0 -7.578125l-2.828125 0l0 -1.015625l6.8125 0l0 1.015625l-2.84375 0l0 7.578125l-1.140625 0zm10.267578 -1.015625l0 1.015625l-5.6875 0q0 -0.375 0.125 -0.734375q0.21875 -0.578125 0.6875 -1.140625q0.484375 -0.5625 1.390625 -1.296875q1.40625 -1.15625 1.890625 -1.828125q0.5 -0.671875 0.5 -1.265625q0 -0.625 -0.453125 -1.046875q-0.453125 -0.4375 -1.171875 -0.4375q-0.765625 0 -1.21875 0.453125q-0.453125 0.453125 -0.46875 1.265625l-1.078125 -0.109375q0.109375 -1.21875 0.828125 -1.84375q0.734375 -0.640625 1.96875 -0.640625q1.234375 0 1.953125 0.6875q0.71875 0.6875 0.71875 1.703125q0 0.515625 -0.21875 1.015625q-0.203125 0.484375 -0.703125 1.046875q-0.484375 0.546875 -1.609375 1.5q-0.953125 0.796875 -1.234375 1.09375q-0.265625 0.28125 -0.4375 0.5625l4.21875 0z" fill-rule="nonzero"></path><path fill="#000000" fill-opacity="0.0" d="m171.84592 317.49484l41.889755 0l0 32.1575l-41.889755 0z" fill-rule="nonzero"></path><path fill="#6aa84f" d="m183.95529 338.01486l0 -7.578125l-2.828125 0l0 -1.015625l6.8125 0l0 1.015625l-2.84375 0l0 7.578125l-1.140625 0zm8.095703 0l0 -2.0625l-3.71875 0l0 -0.96875l3.921875 -5.5625l0.859375 0l0 5.5625l1.15625 0l0 0.96875l-1.15625 0l0 2.0625l-1.0625 0zm0 -3.03125l0 -3.859375l-2.6875 3.859375l2.6875 0z" fill-rule="nonzero"></path><path fill="#000000" fill-opacity="0.0" d="m287.6224 147.05392l41.88977 0l0 32.15747l-41.88977 0z" fill-rule="nonzero"></path><path fill="#1155cc" d="m299.73178 167.57391l0 -7.578125l-2.828125 0l0 -1.015625l6.8125 0l0 1.015625l-2.84375 0l0 7.578125l-1.140625 0zm4.720703 -2.265625l1.0625 -0.140625q0.171875 0.890625 0.609375 1.296875q0.4375 0.390625 1.0625 0.390625q0.75 0 1.265625 -0.515625q0.515625 -0.515625 0.515625 -1.28125q0 -0.71875 -0.484375 -1.1875q-0.46875 -0.484375 -1.203125 -0.484375q-0.296875 0 -0.75 0.125l0.125 -0.9375q0.109375 0.015625 0.171875 0.015625q0.671875 0 1.203125 -0.34375q0.546875 -0.359375 0.546875 -1.09375q0 -0.578125 -0.390625 -0.953125q-0.390625 -0.390625 -1.015625 -0.390625q-0.609375 0 -1.03125 0.390625q-0.40625 0.390625 -0.515625 1.15625l-1.0625 -0.1875q0.1875 -1.046875 0.875 -1.625q0.6875 -0.59375 1.703125 -0.59375q0.703125 0 1.296875 0.3125q0.59375 0.296875 0.90625 0.8125q0.3125 0.515625 0.3125 1.109375q0 0.546875 -0.296875 1.015625q-0.296875 0.453125 -0.875 0.71875q0.75 0.171875 1.171875 0.734375q0.421875 0.546875 0.421875 1.390625q0 1.125 -0.828125 1.90625q-0.8125 0.78125 -2.0625 0.78125q-1.125 0 -1.875 -0.671875q-0.75 -0.6875 -0.859375 -1.75z" fill-rule="nonzero"></path><path fill="#ff00ff" d="m282.71524 281.90866l0 0c0 -2.1134644 1.7203369 -3.8267822 3.8425293 -3.8267822l0 0c1.0190735 0 1.99646 0.40316772 2.7170715 1.1208496c0.7206116 0.71765137 1.1254272 1.6910095 1.1254272 2.7059326l0 0c0 2.1134644 -1.7203369 3.8267517 -3.8424988 3.8267517l0 0c-2.1221924 0 -3.8425293 -1.7132874 -3.8425293 -3.8267517z" fill-rule="nonzero"></path><path fill="#000000" fill-opacity="0.0" d="m487.04282 270.0l0 0c0 -115.90152 94.24582 -209.85828 210.50394 -209.85828l0 0c55.8291 0 109.37158 22.110008 148.84875 61.466064c39.477173 39.356056 61.65515 92.73434 61.65515 148.39221l0 0c0 115.90152 -94.24579 209.85828 -210.5039 209.85828l0 0c-116.25812 0 -210.50394 -93.95676 -210.50394 -209.85828z" fill-rule="nonzero"></path><path stroke="#595959" stroke-width="1.0" stroke-linejoin="round" stroke-linecap="butt" d="m487.04282 270.0l0 0c0 -115.90152 94.24582 -209.85828 210.50394 -209.85828l0 0c55.8291 0 109.37158 22.110008 148.84875 61.466064c39.477173 39.356056 61.65515 92.73434 61.65515 148.39221l0 0c0 115.90152 -94.24579 209.85828 -210.5039 209.85828l0 0c-116.25812 0 -210.50394 -93.95676 -210.50394 -209.85828z" fill-rule="nonzero"></path><path fill="#000000" fill-opacity="0.0" d="m621.72876 327.2685l0 0c-5.8272705 -6.7056885 -2.9295044 -18.71997 6.472412 -26.834656l0 0c9.4019165 -8.114655 21.747559 -9.256866 27.57483 -2.551178l0 0c5.8272095 6.7056885 2.9294434 18.71997 -6.472473 26.834656l0 0c-9.401855 8.114655 -21.747559 9.256866 -27.574768 2.551178z" fill-rule="nonzero"></path><path stroke="#bf9000" stroke-width="2.0" stroke-linejoin="round" stroke-linecap="butt" d="m621.72876 327.2685l0 0c-5.8272705 -6.7056885 -2.9295044 -18.71997 6.472412 -26.834656l0 0c9.4019165 -8.114655 21.747559 -9.256866 27.57483 -2.551178l0 0c5.8272095 6.7056885 2.9294434 18.71997 -6.472473 26.834656l0 0c-9.401855 8.114655 -21.747559 9.256866 -27.574768 2.551178z" fill-rule="nonzero"></path><path fill="#000000" fill-opacity="0.0" d="m617.9686 329.50845l44.37799 -38.362213" fill-rule="nonzero"></path><path stroke="#bf9000" stroke-width="2.0" stroke-linejoin="round" stroke-linecap="butt" d="m617.9686 329.50845l44.37799 -38.362213" fill-rule="nonzero"></path><path fill="#000000" fill-opacity="0.0" d="m590.52466 308.22318l41.88977 0l0 32.1575l-41.88977 0z" fill-rule="nonzero"></path><path fill="#bf9000" d="m602.63403 328.7432l0 -7.578125l-2.828125 0l0 -1.015625l6.8125 0l0 1.015625l-2.84375 0l0 7.578125l-1.140625 0zm8.689453 0l-1.046875 0l0 -6.71875q-0.390625 0.359375 -1.015625 0.734375q-0.609375 0.359375 -1.09375 0.53125l0 -1.015625q0.875 -0.421875 1.53125 -1.0q0.671875 -0.59375 0.953125 -1.15625l0.671875 0l0 8.625z" fill-rule="nonzero"></path><path fill="#000000" fill-opacity="0.0" d="m618.79517 282.272l0 0c6.17511 -7.1666565 19.317505 -5.9962463 29.35431 2.6141663l0 0c10.036804 8.610443 13.167297 21.400269 6.9921265 28.566925l0 0c-6.175171 7.1666565 -19.317566 5.996277 -29.35437 -2.6141663l0 0c-10.036743 -8.610413 -13.167236 -21.400269 -6.9920654 -28.566925z" fill-rule="nonzero"></path><path stroke="#cc0000" stroke-width="2.0" stroke-linejoin="round" stroke-linecap="butt" d="m618.79517 282.272l0 0c6.17511 -7.1666565 19.317505 -5.9962463 29.35431 2.6141663l0 0c10.036804 8.610443 13.167297 21.400269 6.9921265 28.566925l0 0c-6.175171 7.1666565 -19.317566 5.996277 -29.35437 -2.6141663l0 0c-10.036743 -8.610413 -13.167236 -21.400269 -6.9920654 -28.566925z" fill-rule="nonzero"></path><path fill="#000000" fill-opacity="0.0" d="m615.8304 278.66992l47.433105 40.661407" fill-rule="nonzero"></path><path stroke="#cc0000" stroke-width="2.0" stroke-linejoin="round" stroke-linecap="butt" d="m615.8304 278.66992l47.433105 40.661407" fill-rule="nonzero"></path><path fill="#000000" fill-opacity="0.0" d="m667.16125 314.14236l0 0c-0.4262085 6.870941 -8.576721 11.947388 -18.204712 11.338562l0 0c-9.628052 -0.60879517 -17.087646 -6.6723633 -16.661438 -13.543304l0 0c0.42614746 -6.870941 8.576721 -11.947388 18.204712 -11.338562l0 0c9.628052 0.60879517 17.087585 6.6723633 16.661438 13.543304z" fill-rule="nonzero"></path><path stroke="#1155cc" stroke-width="2.0" stroke-linejoin="round" stroke-linecap="butt" d="m667.16125 314.14236l0 0c-0.4262085 6.870941 -8.576721 11.947388 -18.204712 11.338562l0 0c-9.628052 -0.60879517 -17.087646 -6.6723633 -16.661438 -13.543304l0 0c0.42614746 -6.870941 8.576721 -11.947388 18.204712 -11.338562l0 0c9.628052 0.60879517 17.087585 6.6723633 16.661438 13.543304z" fill-rule="nonzero"></path><path fill="#000000" fill-opacity="0.0" d="m670.47253 314.94083l-45.51178 -2.8031616" fill-rule="nonzero"></path><path stroke="#1155cc" stroke-width="2.0" stroke-linejoin="round" stroke-linecap="butt" d="m670.47253 314.94083l-45.51178 -2.8031616" fill-rule="nonzero"></path><path fill="#000000" fill-opacity="0.0" d="m669.10547 294.29642l0 0c1.8699341 6.923126 -4.468567 14.643555 -14.157471 17.24408l0 0c-9.688904 2.600525 -19.059204 -0.9036255 -20.929138 -7.826782l0 0c-1.8699341 -6.923126 4.468567 -14.643555 14.157471 -17.24408l0 0c9.688904 -2.600525 19.059204 0.903656 20.929138 7.826782z" fill-rule="nonzero"></path><path stroke="#38761d" stroke-width="2.0" stroke-linejoin="round" stroke-linecap="butt" d="m669.10547 294.29642l0 0c1.8699341 6.923126 -4.468567 14.643555 -14.157471 17.24408l0 0c-9.688904 2.600525 -19.059204 -0.9036255 -20.929138 -7.826782l0 0c-1.8699341 -6.923126 4.468567 -14.643555 14.157471 -17.24408l0 0c9.688904 -2.600525 19.059204 0.903656 20.929138 7.826782z" fill-rule="nonzero"></path><path fill="#000000" fill-opacity="0.0" d="m672.6275 293.9931l-45.795227 12.346466" fill-rule="nonzero"></path><path stroke="#38761d" stroke-width="2.0" stroke-linejoin="round" stroke-linecap="butt" d="m672.6275 293.9931l-45.795227 12.346466" fill-rule="nonzero"></path><path fill="#ff00ff" d="m636.3023 308.31396l0 0c0 -2.1134644 1.720398 -3.8267517 3.8425293 -3.8267517l0 0c1.019104 0 1.99646 0.40316772 2.717102 1.1208191c0.72058105 0.71765137 1.1254272 1.6910095 1.1254272 2.7059326l0 0c0 2.1134644 -1.7203369 3.8267822 -3.8425293 3.8267822l0 0c-2.1221313 0 -3.8425293 -1.7133179 -3.8425293 -3.8267822z" fill-rule="nonzero"></path><path fill="#000000" fill-opacity="0.0" d="m597.59955 252.0092l41.88977 0l0 32.157486l-41.88977 0z" fill-rule="nonzero"></path><path fill="#cc0000" d="m609.7089 272.5292l0 -7.578125l-2.828125 0l0 -1.015625l6.8125 0l0 1.015625l-2.84375 0l0 7.578125l-1.140625 0zm10.267578 -1.015625l0 1.015625l-5.6875 0q0 -0.375 0.125 -0.734375q0.21875 -0.578125 0.6875 -1.140625q0.484375 -0.5625 1.390625 -1.296875q1.40625 -1.15625 1.890625 -1.828125q0.5 -0.671875 0.5 -1.265625q0 -0.625 -0.453125 -1.046875q-0.453125 -0.4375 -1.171875 -0.4375q-0.765625 0 -1.21875 0.453125q-0.453125 0.453125 -0.46875 1.265625l-1.078125 -0.109375q0.109375 -1.21875 0.828125 -1.84375q0.734375 -0.640625 1.96875 -0.640625q1.234375 0 1.953125 0.6875q0.71875 0.6875 0.71875 1.703125q0 0.515625 -0.21875 1.015625q-0.203125 0.484375 -0.703125 1.046875q-0.484375 0.546875 -1.609375 1.5q-0.953125 0.796875 -1.234375 1.09375q-0.265625 0.28125 -0.4375 0.5625l4.21875 0z" fill-rule="nonzero"></path><path fill="#000000" fill-opacity="0.0" d="m660.10815 269.22934l41.88977 0l0 32.15747l-41.88977 0z" fill-rule="nonzero"></path><path fill="#6aa84f" d="m672.2175 289.74936l0 -7.578125l-2.828125 0l0 -1.015625l6.8125 0l0 1.015625l-2.84375 0l0 7.578125l-1.140625 0zm8.095703 0l0 -2.0625l-3.71875 0l0 -0.96875l3.921875 -5.5625l0.859375 0l0 5.5625l1.15625 0l0 0.96875l-1.15625 0l0 2.0625l-1.0625 0zm0 -3.03125l0 -3.859375l-2.6875 3.859375l2.6875 0z" fill-rule="nonzero"></path><path fill="#000000" fill-opacity="0.0" d="m656.20917 308.22452l41.88977 0l0 32.1575l-41.88977 0z" fill-rule="nonzero"></path><path fill="#1155cc" d="m668.31854 328.74454l0 -7.578125l-2.828125 0l0 -1.015625l6.8125 0l0 1.015625l-2.84375 0l0 7.578125l-1.140625 0zm4.720703 -2.265625l1.0625 -0.140625q0.171875 0.890625 0.609375 1.296875q0.4375 0.390625 1.0625 0.390625q0.75 0 1.265625 -0.515625q0.515625 -0.515625 0.515625 -1.28125q0 -0.71875 -0.484375 -1.1875q-0.46875 -0.484375 -1.203125 -0.484375q-0.296875 0 -0.75 0.125l0.125 -0.9375q0.109375 0.015625 0.171875 0.015625q0.671875 0 1.203125 -0.34375q0.546875 -0.359375 0.546875 -1.09375q0 -0.578125 -0.390625 -0.953125q-0.390625 -0.390625 -1.015625 -0.390625q-0.609375 0 -1.03125 0.390625q-0.40625 0.390625 -0.515625 1.15625l-1.0625 -0.1875q0.1875 -1.046875 0.875 -1.625q0.6875 -0.59375 1.703125 -0.59375q0.703125 0 1.296875 0.3125q0.59375 0.296875 0.90625 0.8125q0.3125 0.515625 0.3125 1.109375q0 0.546875 -0.296875 1.015625q-0.296875 0.453125 -0.875 0.71875q0.75 0.171875 1.171875 0.734375q0.421875 0.546875 0.421875 1.390625q0 1.125 -0.828125 1.90625q-0.8125 0.78125 -2.0625 0.78125q-1.125 0 -1.875 -0.671875q-0.75 -0.6875 -0.859375 -1.75z" fill-rule="nonzero"></path><path fill="#000000" fill-opacity="0.0" d="m-0.496063 324.29398l0 -102.86615l38.362206 0l0 102.86615z" fill-rule="nonzero"></path><path fill="#000000" d="m26.423935 313.79398l-13.59375 0l0 -9.84375l1.59375 0l0 8.046875l4.171875 0l0 -7.53125l1.59375 0l0 7.53125l4.625 0l0 -8.359375l1.609375 0l0 10.15625zm0 -12.162323l-13.59375 0l0 -1.671875l13.59375 0l0 1.671875zm-3.171875 -10.926086l0.21875 -1.71875q1.5 0.40625 2.34375 1.515625q0.828125 1.09375 0.828125 2.8125q0 2.15625 -1.328125 3.421875q-1.328125 1.265625 -3.734375 1.265625q-2.484375 0 -3.859375 -1.265625q-1.375 -1.28125 -1.375 -3.328125q0 -1.984375 1.34375 -3.234375q1.34375 -1.25 3.796875 -1.25q0.140625 0 0.4375 0.015625l0 7.34375q1.625 -0.09375 2.484375 -0.921875q0.859375 -0.828125 0.859375 -2.0625q0 -0.90625 -0.46875 -1.546875q-0.484375 -0.65625 -1.546875 -1.046875zm-2.703125 5.484375l0 -5.5q-1.234375 0.109375 -1.859375 0.625q-0.96875 0.796875 -0.96875 2.078125q0 1.140625 0.78125 1.9375q0.765625 0.78125 2.046875 0.859375zm5.875 -11.844452l-9.859375 3.75l0 -1.765625l5.90625 -2.125q0.953125 -0.34375 1.984375 -0.625q-0.78125 -0.21875 -1.875 -0.625l-6.015625 -2.1875l0 -1.71875l9.859375 3.734375l0 1.5625zm-1.21875 -13.03125q0.796875 0.9375 1.125 1.796875q0.3125 0.859375 0.3125 1.84375q0 1.609375 -0.78125 2.484375q-0.796875 0.875 -2.03125 0.875q-0.734375 0 -1.328125 -0.328125q-0.59375 -0.328125 -0.953125 -0.859375q-0.359375 -0.53125 -0.546875 -1.203125q-0.140625 -0.5 -0.25 -1.484375q-0.25 -2.03125 -0.578125 -2.984375q-0.34375 0 -0.4375 0q-1.015625 0 -1.4375 0.46875q-0.5625 0.640625 -0.5625 1.90625q0 1.171875 0.40625 1.734375q0.40625 0.5625 1.46875 0.828125l-0.234375 1.640625q-1.046875 -0.234375 -1.6875 -0.734375q-0.640625 -0.515625 -0.984375 -1.46875q-0.359375 -0.96875 -0.359375 -2.25q0 -1.265625 0.296875 -2.046875q0.296875 -0.78125 0.75 -1.15625q0.453125 -0.375 1.140625 -0.515625q0.421875 -0.09375 1.53125 -0.09375l2.234375 0q2.328125 0 2.953125 -0.09375q0.609375 -0.109375 1.171875 -0.4375l0 1.75q-0.515625 0.265625 -1.21875 0.328125zm-3.71875 0.140625q0.359375 0.90625 0.625 2.734375q0.140625 1.03125 0.328125 1.453125q0.1875 0.421875 0.546875 0.65625q0.359375 0.234375 0.796875 0.234375q0.671875 0 1.125 -0.5q0.4375 -0.515625 0.4375 -1.484375q0 -0.96875 -0.421875 -1.71875q-0.4375 -0.75 -1.15625 -1.109375q-0.578125 -0.265625 -1.671875 -0.265625l-0.609375 0zm3.4375 -7.7351074l1.484375 -0.234375q0.140625 0.703125 0.140625 1.265625q0 0.90625 -0.28125 1.40625q-0.296875 0.5 -0.75 0.703125q-0.46875 0.203125 -1.984375 0.203125l-5.65625 0l0 1.234375l-1.3125 0l0 -1.234375l-2.4375 0l-1.0 -1.65625l3.4375 0l0 -1.6875l1.3125 0l0 1.6875l5.75 0q0.71875 0 0.921875 -0.078125q0.203125 -0.09375 0.328125 -0.296875q0.125 -0.203125 0.125 -0.578125q0 -0.265625 -0.078125 -0.734375zm-10.1875 -1.5426636l-1.90625 0l0 -1.671875l1.90625 0l0 1.671875zm11.6875 0l-9.859375 0l0 -1.671875l9.859375 0l0 1.671875zm-4.921875 -3.5042114q-2.734375 0 -4.0625 -1.53125q-1.09375 -1.265625 -1.09375 -3.09375q0 -2.03125 1.34375 -3.3125q1.328125 -1.296875 3.671875 -1.296875q1.90625 0 3.0 0.578125q1.078125 0.5625 1.6875 1.65625q0.59375 1.078125 0.59375 2.375q0 2.0625 -1.328125 3.34375q-1.328125 1.28125 -3.8125 1.28125zm0 -1.71875q1.890625 0 2.828125 -0.828125q0.9375 -0.828125 0.9375 -2.078125q0 -1.25 -0.9375 -2.0625q-0.953125 -0.828125 -2.890625 -0.828125q-1.828125 0 -2.765625 0.828125q-0.9375 0.828125 -0.9375 2.0625q0 1.25 0.9375 2.078125q0.9375 0.828125 2.828125 0.828125zm4.921875 -9.281967l-9.859375 0l0 -1.5l1.40625 0q-1.625 -1.09375 -1.625 -3.140625q0 -0.890625 0.328125 -1.640625q0.3125 -0.75 0.84375 -1.109375q0.515625 -0.375 1.21875 -0.53125q0.46875 -0.09375 1.625 -0.09375l6.0625 0l0 1.671875l-6.0 0q-1.015625 0 -1.515625 0.203125q-0.515625 0.1875 -0.8125 0.6875q-0.296875 0.5 -0.296875 1.171875q0 1.0625 0.671875 1.84375q0.671875 0.765625 2.578125 0.765625l5.375 0l0 1.671875z" fill-rule="nonzero"></path><path fill="#000000" fill-opacity="0.0" d="m216.97375 480.31235l102.86615 0l0 38.362213l-102.86615 0z" fill-rule="nonzero"></path><path fill="#000000" d="m225.9425 507.23233l5.234375 -13.59375l1.9375 0l5.5625 13.59375l-2.046875 0l-1.59375 -4.125l-5.6875 0l-1.484375 4.125l-1.921875 0zm3.921875 -5.578125l4.609375 0l-1.40625 -3.78125q-0.65625 -1.703125 -0.96875 -2.8125q-0.265625 1.3125 -0.734375 2.59375l-1.5 4.0zm8.927948 5.578125l0 -1.359375l6.265625 -7.1875q-1.0625 0.046875 -1.875 0.046875l-4.015625 0l0 -1.359375l8.046875 0l0 1.109375l-5.34375 6.25l-1.015625 1.140625q1.109375 -0.078125 2.09375 -0.078125l4.5625 0l0 1.4375l-8.71875 0zm10.21875 -11.6875l0 -1.90625l1.671875 0l0 1.90625l-1.671875 0zm0 11.6875l0 -9.859375l1.671875 0l0 9.859375l-1.671875 0zm4.129196 0l0 -9.859375l1.5 0l0 1.390625q0.453125 -0.71875 1.21875 -1.15625q0.78123474 -0.453125 1.7656097 -0.453125q1.09375 0 1.796875 0.453125q0.703125 0.453125 0.984375 1.28125q1.171875 -1.734375 3.046875 -1.734375q1.46875 0 2.25 0.8125q0.796875 0.8125 0.796875 2.5l0 6.765625l-1.671875 0l0 -6.203125q0 -1.0 -0.15625 -1.4375q-0.15625 -0.453125 -0.59375 -0.71875q-0.421875 -0.265625 -1.0 -0.265625q-1.03125 0 -1.71875 0.6875q-0.6875 0.6875 -0.6875 2.21875l0 5.71875l-1.671875 0l0 -6.40625q0 -1.109375 -0.40625 -1.65625q-0.40625 -0.5625 -1.34375 -0.5625q-0.703125 0 -1.3124847 0.375q-0.59375 0.359375 -0.859375 1.078125q-0.265625 0.71875 -0.265625 2.0625l0 5.109375l-1.671875 0zm21.993912 0l0 -1.453125q-1.140625 1.671875 -3.125 1.671875q-0.859375 0 -1.625 -0.328125q-0.75 -0.34375 -1.125 -0.84375q-0.359375 -0.5 -0.515625 -1.234375q-0.09375 -0.5 -0.09375 -1.5625l0 -6.109375l1.671875 0l0 5.46875q0 1.3125 0.09375 1.765625q0.15625 0.65625 0.671875 1.03125q0.515625 0.375 1.265625 0.375q0.75 0 1.40625 -0.375q0.65625 -0.390625 0.921875 -1.046875q0.28125 -0.671875 0.28125 -1.9375l0 -5.28125l1.671875 0l0 9.859375l-1.5 0zm7.5788574 -1.5l0.234375 1.484375q-0.703125 0.140625 -1.265625 0.140625q-0.90625 0 -1.40625 -0.28125q-0.5 -0.296875 -0.703125 -0.75q-0.203125 -0.46875 -0.203125 -1.984375l0 -5.65625l-1.234375 0l0 -1.3125l1.234375 0l0 -2.4375l1.65625 -1.0l0 3.4375l1.6875 0l0 1.3125l-1.6875 0l0 5.75q0 0.71875 0.078125 0.921875q0.09375 0.203125 0.296875 0.328125q0.203125 0.125 0.578125 0.125q0.265625 0 0.734375 -0.078125zm1.5270386 1.5l0 -13.59375l1.671875 0l0 4.875q1.171875 -1.359375 2.953125 -1.359375q1.09375 0 1.890625 0.4375q0.8125 0.421875 1.15625 1.1875q0.359375 0.765625 0.359375 2.203125l0 6.25l-1.671875 0l0 -6.25q0 -1.25 -0.546875 -1.8125q-0.546875 -0.578125 -1.53125 -0.578125q-0.75 0 -1.40625 0.390625q-0.640625 0.375 -0.921875 1.046875q-0.28125 0.65625 -0.28125 1.8125l0 5.390625l-1.671875 0z" fill-rule="nonzero"></path><path fill="#000000" fill-opacity="0.0" d="m35.2231 333.00262l0 -120.28346" fill-rule="nonzero"></path><path stroke="#595959" stroke-width="2.0" stroke-linejoin="round" stroke-linecap="butt" d="m35.2231 333.00262l0 -108.28346" fill-rule="evenodd"></path><path fill="#595959" stroke="#595959" stroke-width="2.0" stroke-linecap="butt" d="m38.52656 224.71916l-3.303463 -9.076202l-3.3034668 9.076202z" fill-rule="evenodd"></path><path fill="#000000" fill-opacity="0.0" d="m203.33595 518.67456l118.23622 0" fill-rule="nonzero"></path><path stroke="#595959" stroke-width="2.0" stroke-linejoin="round" stroke-linecap="butt" d="m203.33595 518.67456l106.23622 0" fill-rule="evenodd"></path><path fill="#595959" stroke="#595959" stroke-width="2.0" stroke-linecap="butt" d="m309.57217 521.978l9.076202 -3.3034668l-9.076202 -3.3034668z" fill-rule="evenodd"></path></g></svg>

