<?xml version="1.0" standalone="yes"?>

<svg version="1.1" viewBox="0.0 0.0 960.0 540.0" fill="none" stroke="none" stroke-linecap="square" stroke-miterlimit="10" xmlns="http://www.w3.org/2000/svg" xmlns:xlink="http://www.w3.org/1999/xlink"><clipPath id="p.0"><path d="m0 0l960.0 0l0 540.0l-960.0 0l0 -540.0z" clip-rule="nonzero"></path></clipPath><g clip-path="url(#p.0)"><path fill="#ffffff" d="m0 0l960.0 0l0 540.0l-960.0 0z" fill-rule="nonzero"></path><path fill="#6aa84f" d="m940.99994 138.2768l0 0c0 -7.140564 -5.788574 -12.929138 -12.929138 -12.929138l0 0c-3.429016 0 -6.7175903 1.362175 -9.142273 3.7868652c-2.4246826 2.4246826 -3.7868652 5.713257 -3.7868652 9.142273l0 0c0 7.140564 5.788574 12.929138 12.929138 12.929138l0 0c7.140564 0 12.929138 -5.788574 12.929138 -12.929138z" fill-rule="nonzero"></path><path fill="#000000" fill-opacity="0.0" d="m745.5982 138.25984l0 0c0 -65.34355 -161.55121 -118.31496 -360.8347 -118.31496l0 0c-199.28346 0 -360.83463 52.97141 -360.83463 118.31496l0 0c0 65.34355 161.55118 118.31496 360.83463 118.31496l0 0c199.28348 0 360.8347 -52.971405 360.8347 -118.31496z" fill-rule="nonzero"></path><path stroke="#3c78d8" stroke-width="4.0" stroke-linejoin="round" stroke-linecap="butt" d="m745.5982 138.25984l0 0c0 -65.34355 -161.55121 -118.31496 -360.8347 -118.31496l0 0c-199.28346 0 -360.83463 52.97141 -360.83463 118.31496l0 0c0 65.34355 161.55118 118.31496 360.83463 118.31496l0 0c199.28348 0 360.8347 -52.971405 360.8347 -118.31496z" fill-rule="nonzero"></path><path fill="#cc0000" d="m397.69693 138.25594l0 0c0 -7.140564 -5.788574 -12.929131 -12.929138 -12.929131l0 0c-3.429016 0 -6.7175903 1.362175 -9.142273 3.7868576c-2.4246826 2.4246826 -3.7868652 5.713257 -3.7868652 9.142273l0 0c0 7.140564 5.788574 12.929138 12.929138 12.929138l0 0c7.140564 0 12.929138 -5.788574 12.929138 -12.929138z" fill-rule="nonzero"></path><path fill="#000000" fill-opacity="0.0" d="m384.39038 138.26367l543.49603 0" fill-rule="nonzero"></path><path stroke="#595959" stroke-width="4.0" stroke-linejoin="round" stroke-linecap="butt" d="m384.39038 138.26367l543.49603 0" fill-rule="nonzero"></path><path fill="#000000" fill-opacity="0.0" d="m625.32355 405.0389l0 0c0 -65.34354 -107.11322 -118.31494 -239.24408 -118.31494l0 0c-132.13087 0 -239.24411 52.971405 -239.24411 118.31494l0 0c0 65.34357 107.113235 118.31497 239.24411 118.31497l0 0c132.13086 0 239.24408 -52.971405 239.24408 -118.31497z" fill-rule="nonzero"></path><path stroke="#3c78d8" stroke-width="4.0" stroke-linejoin="round" stroke-linecap="butt" d="m625.32355 405.0389l0 0c0 -65.34354 -107.11322 -118.31494 -239.24408 -118.31494l0 0c-132.13087 0 -239.24411 52.971405 -239.24411 118.31494l0 0c0 65.34357 107.113235 118.31497 239.24411 118.31497l0 0c132.13086 0 239.24408 -52.971405 239.24408 -118.31497z" fill-rule="nonzero"></path><path fill="#6aa84f" d="m758.5976 405.05588l0 0c0 -7.140564 -5.788574 -12.929138 -12.929138 -12.929138l0 0c-3.429016 0 -6.7175903 1.3621826 -9.142273 3.7868652c-2.4246826 2.4246826 -3.7868652 5.713257 -3.7868652 9.142273l0 0c0 7.140564 5.788574 12.929138 12.929138 12.929138l0 0c7.140564 0 12.929138 -5.788574 12.929138 -12.929138z" fill-rule="nonzero"></path><path fill="#cc0000" d="m397.69693 405.03503l0 0c0 -7.140564 -5.788574 -12.929138 -12.929138 -12.929138l0 0c-3.429016 0 -6.7175903 1.3621521 -9.142273 3.7868347c-2.4246826 2.4246826 -3.7868652 5.713257 -3.7868652 9.142303l0 0c0 7.140564 5.788574 12.929108 12.929138 12.929108l0 0c7.140564 0 12.929138 -5.7885437 12.929138 -12.929108z" fill-rule="nonzero"></path><path fill="#000000" fill-opacity="0.0" d="m385.84482 405.04276l360.34647 0" fill-rule="nonzero"></path><path stroke="#595959" stroke-width="4.0" stroke-linejoin="round" stroke-linecap="butt" d="m385.84482 405.04276l360.34647 0" fill-rule="nonzero"></path></g></svg>

